<svg width="41" height="47" viewBox="0 0 41 47" fill="none" xmlns="http://www.w3.org/2000/svg">
<path d="M38.6481 20.0054L6.77296 1.1625C4.1831 -0.366773 0.215912 1.11723 0.215912 4.90374V42.5814C0.215912 45.9768 3.90057 48.0221 6.77296 46.3208L38.6481 27.4879C41.4915 25.8092 41.5006 21.6805 38.6481 20.0054ZM29.3645 26.2384L10.3834 37.4521C8.45637 38.5975 6.0114 37.2013 6.0114 34.9577V12.5211C6.0114 10.2775 8.45637 8.88491 10.3834 10.0276L29.3645 21.2504C29.7979 21.5066 30.1571 21.8714 30.4066 22.3088C30.6561 22.7461 30.7874 23.2409 30.7874 23.7444C30.7874 24.2479 30.6561 24.7427 30.4066 25.18C30.1571 25.6173 29.7979 25.9821 29.3645 26.2384Z" fill="white" fill-opacity="0.5"/>
<path d="M10.3833 10.0295L29.3644 21.2505C29.7979 21.5068 30.1571 21.8716 30.4066 22.3089C30.6561 22.7462 30.7873 23.241 30.7873 23.7445C30.7873 24.248 30.6561 24.7428 30.4066 25.1802C30.1571 25.6175 29.7979 25.9823 29.3644 26.2385L10.3833 37.4523C8.45632 38.5977 6.01135 37.2015 6.01135 34.9578V12.5213C6.01135 10.2794 8.45632 8.88686 10.3833 10.0295Z" fill="white"/>
</svg>
